<svg width="682" height="570" viewBox="0 0 682 570" fill="none" xmlns="http://www.w3.org/2000/svg">
<path d="M360 390C360 489.411 279.411 570 180 570C80.5887 570 0 489.411 0 390C0 290.589 80.5887 210 180 210C279.411 210 360 290.589 360 390Z" fill="#6AFF79"/>
<path d="M148.321 436V363.273H163.697V393.28H194.912V363.273H210.253V436H194.912V405.957H163.697V436H148.321Z" fill="#14890A"/>
<path d="M501 180C501 279.411 420.411 360 321 360C221.589 360 141 279.411 141 180C141 80.5887 221.589 0 321 0C420.411 0 501 80.5887 501 180Z" fill="#5A56FD"/>
<path d="M290.321 216.5V143.773H319.014C324.507 143.773 329.194 144.755 333.077 146.72C336.983 148.661 339.954 151.42 341.99 154.994C344.05 158.545 345.08 162.724 345.08 167.53C345.08 172.359 344.038 176.514 341.955 179.994C339.871 183.451 336.853 186.102 332.899 187.949C328.969 189.795 324.211 190.719 318.624 190.719H299.412V178.361H316.138C319.073 178.361 321.512 177.958 323.453 177.153C325.394 176.348 326.839 175.141 327.786 173.531C328.756 171.921 329.241 169.921 329.241 167.53C329.241 165.115 328.756 163.079 327.786 161.422C326.839 159.765 325.383 158.51 323.418 157.658C321.476 156.782 319.026 156.344 316.067 156.344H305.697V216.5H290.321ZM329.597 183.403L347.672 216.5H330.697L313.013 183.403H329.597Z" fill="#1020AA"/>
<path d="M682 390C682 489.411 601.411 570 502 570C402.589 570 322 489.411 322 390C322 290.589 402.589 210 502 210C601.411 210 682 290.589 682 390Z" fill="#EB6969"/>
<path d="M482.357 428H465.879L490.986 355.273H510.801L535.872 428H519.395L501.178 371.892H500.609L482.357 428ZM481.327 399.413H520.247V411.416H481.327V399.413Z" fill="#B50C0C"/>
</svg>
